<svg width="28" height="28" viewBox="0 0 28 28" fill="none" xmlns="http://www.w3.org/2000/svg">
<path d="M12.2679 3C13.0377 1.66667 14.9623 1.66667 15.7321 3L24.3923 18C25.1621 19.3333 24.1999 21 22.6603 21H5.33975C3.80015 21 2.8379 19.3333 3.6077 18L12.2679 3Z" fill="white"/>
<path fill-rule="evenodd" clip-rule="evenodd" d="M13.875 7C13.3918 7 13 7.39175 13 7.875V13.4583C13 13.9416 13.3918 14.3333 13.875 14.3333C14.3582 14.3333 14.75 13.9416 14.75 13.4583V7.875C14.75 7.39175 14.3582 7 13.875 7ZM13.875 16.3335C13.3918 16.3335 13 16.7252 13 17.2085C13 17.6917 13.3918 18.0835 13.875 18.0835C14.3582 18.0835 14.75 17.6917 14.75 17.2085C14.75 16.7252 14.3582 16.3335 13.875 16.3335Z" fill="#FF0D26"/>
</svg>
