<svg width="17" height="17" xmlns="http://www.w3.org/2000/svg" fill="none">

 <g>
  <title>Layer 1</title>
  <circle id="svg_1" stroke="#707272" r="8" cy="8.5" cx="8.5"/>
  <path id="svg_2" fill="#707272" d="m9.033,5.393c-0.234,0 -0.42467,-0.07367 -0.572,-0.221c-0.14734,-0.14733 -0.221,-0.33367 -0.221,-0.559c0,-0.30333 0.11266,-0.56333 0.338,-0.78c0.234,-0.22533 0.49833,-0.338 0.793,-0.338c0.234,0 0.42033,0.07367 0.559,0.221c0.14733,0.14733 0.221,0.33367 0.221,0.559c0,0.30333 -0.11267,0.56767 -0.338,0.793c-0.22534,0.21667 -0.48534,0.325 -0.78,0.325zm0.559,0.949l-1.261,7.163l-1.482,0l1.261,-7.163l1.482,0z"/>
 </g>
</svg>